<svg xmlns="http://www.w3.org/2000/svg" version="1.1" xmlns:xlink="http://www.w3.org/1999/xlink" xmlns:svgjs="http://svgjs.dev/svgjs" width="1500" height="1500" viewBox="0 0 1500 1500"><g transform="matrix(1,0,0,1,-0.323615160350073,-0.3236151603499593)"><svg viewBox="0 0 343 343" data-background-color="#ffffff" preserveAspectRatio="xMidYMid meet" height="1500" width="1500" xmlns="http://www.w3.org/2000/svg" xmlns:xlink="http://www.w3.org/1999/xlink"><g id="tight-bounds" transform="matrix(1,0,0,1,0.0740000000000407,0.07400000000001228)"><svg viewBox="0 0 342.85155851775386 342.85155851775386" height="342.85155851775386" width="342.85155851775386"><g><svg></svg></g><g><svg viewBox="0 0 342.85155851775386 342.85155851775386" height="342.85155851775386" width="342.85155851775386"><g><path d="M0 171.426c0-94.676 76.75-171.426 171.426-171.426 94.676 0 171.426 76.75 171.426 171.426 0 94.676-76.75 171.426-171.426 171.426-94.676 0-171.426-76.75-171.426-171.426zM171.426 328.032c86.491 0 156.606-70.115 156.606-156.606 0-86.491-70.115-156.606-156.606-156.607-86.491 0-156.606 70.115-156.607 156.607 0 86.491 70.115 156.606 156.607 156.606z" data-fill-palette-color="tertiary" fill="#ed1703" stroke="transparent"></path><ellipse rx="164.56874808852186" ry="164.56874808852186" cx="171.42577925887693" cy="171.42577925887693" fill="#ed1703" stroke="transparent" stroke-width="0" fill-opacity="1" data-fill-palette-color="tertiary"></ellipse></g><g transform="matrix(1,0,0,1,64.84655864529837,89.26118186955426)"><svg viewBox="0 0 213.1584412271571 164.32919477864533" height="164.32919477864533" width="213.1584412271571"><g><svg viewBox="0 0 213.1584412271571 164.32919477864533" height="164.32919477864533" width="213.1584412271571"><g><svg viewBox="0 0 213.1584412271571 164.32919477864533" height="164.32919477864533" width="213.1584412271571"><g><svg viewBox="0 0 213.1584412271571 164.32919477864533" height="164.32919477864533" width="213.1584412271571"><g id="textblocktransform"><svg viewBox="0 0 213.1584412271571 164.32919477864533" height="164.32919477864533" width="213.1584412271571" id="textblock"><g><svg viewBox="0 0 213.1584412271571 164.32919477864533" height="164.32919477864533" width="213.1584412271571"><g transform="matrix(1,0,0,1,0,0)"><svg width="213.1584412271571" viewBox="4.2 -35 45.4 35" height="164.32919477864533" data-palette-color="#ffffff"><path d="M29.4-17.5L29.4 0 24.4 0 24.4-17.5Q24.4-20.95 22.73-23.8 21.05-26.65 18.2-28.33 15.35-30 11.9-30L11.9-30 9.2-30 9.2 0 4.2 0 4.2-35 11.9-35Q16.65-35 20.63-32.65 24.6-30.3 26.9-26.5L26.9-26.5Q29.2-30.3 33.18-32.65 37.15-35 41.9-35L41.9-35 49.6-35 49.6 0 44.6 0 44.6-30 41.9-30Q38.45-30 35.63-28.33 32.8-26.65 31.1-23.8 29.4-20.95 29.4-17.5L29.4-17.5Z" opacity="1" transform="matrix(1,0,0,1,0,0)" fill="#ffffff" class="wordmark-text-0" data-fill-palette-color="quaternary" id="text-0"></path></svg></g></svg></g></svg></g></svg></g><g></g></svg></g></svg></g></svg></g></svg></g><defs></defs></svg><rect width="342.85155851775386" height="342.85155851775386" fill="none" stroke="none" visibility="hidden"></rect></g></svg></g></svg>